<?xml version="1.0" standalone="no"?>
<!DOCTYPE svg PUBLIC "-//W3C//DTD SVG 20010904//EN"
 "http://www.w3.org/TR/2001/REC-SVG-20010904/DTD/svg10.dtd">
<svg version="1.0" xmlns="http://www.w3.org/2000/svg"
 width="256.000000pt" height="256.000000pt" viewBox="0 0 256.000000 256.000000"
 preserveAspectRatio="xMidYMid meet">
<metadata>
Created by potrace 1.14, written by Peter Selinger 2001-2017
</metadata>
<g transform="translate(0.000000,256.000000) scale(0.100000,-0.100000)"
fill="#000000" stroke="none">
<path d="M760 2235 c-98 -26 -122 -35 -205 -77 -220 -112 -363 -335 -369 -578
-6 -203 97 -395 286 -537 47 -35 54 -58 37 -125 -7 -29 -12 -54 -11 -55 0 -1
-6 -23 -13 -48 -16 -51 -7 -58 35 -28 78 55 186 114 218 118 20 3 87 -1 147
-8 61 -8 111 -14 112 -13 1 1 3 39 4 86 8 314 240 572 576 640 55 11 110 20
121 20 30 0 34 13 21 67 -56 244 -238 435 -495 522 -92 31 -109 33 -249 36
-109 2 -144 -1 -215 -20z m-7 -456 c56 -69 15 -149 -78 -149 -25 0 -40 8 -59
31 -28 33 -32 53 -16 93 21 55 115 71 153 25z m584 7 c23 -20 28 -32 27 -70
-1 -58 -30 -85 -91 -86 -34 0 -46 5 -67 31 -29 34 -31 43 -15 88 21 59 97 79
146 37z"/>
<path d="M1680 1552 c-377 -30 -653 -355 -584 -686 41 -198 205 -375 414 -448
112 -39 269 -43 391 -10 89 24 126 19 221 -29 33 -17 62 -28 65 -26 2 3 -3 27
-13 54 -24 67 -14 94 61 172 114 119 165 229 170 368 7 218 -124 427 -332 529
-115 56 -269 86 -393 76z m-176 -362 c11 -11 19 -33 19 -50 0 -68 -85 -98
-130 -46 -26 30 -28 44 -12 80 22 47 83 55 123 16z m478 3 c51 -46 4 -133 -67
-124 -23 2 -65 45 -65 66 0 26 22 63 44 74 25 12 65 5 88 -16z"/>
</g>
</svg>
